<svg width="32" height="32" viewBox="0 0 32 32" fill="none" xmlns="http://www.w3.org/2000/svg">
<path d="M22.2446 14.6364H13.3625L16.443 11.4478C16.9051 10.9773 16.9051 10.2455 16.443 9.77505C15.9809 9.3046 15.2622 9.3046 14.8001 9.77505L9.81995 14.95C9.35787 15.4205 9.35787 16.1523 9.81995 16.6228L14.8001 21.7978C15.0055 22.0068 15.3135 22.1637 15.6216 22.1637C15.9296 22.1637 16.1863 22.0591 16.443 21.85C16.9051 21.3796 16.9051 20.6478 16.443 20.1773L13.3625 16.9887H22.2446C22.8607 16.9887 23.3741 16.4659 23.3741 15.8387C23.4255 15.1591 22.9121 14.6364 22.2446 14.6364Z" fill="black"/>
<path d="M16.4435 0C7.86943 0 0.886963 7.05681 0.886963 15.7863C0.886963 24.5159 7.86943 31.5727 16.4435 31.5727C25.0176 31.5727 32 24.5159 32 15.7863C32 7.05681 25.0176 0 16.4435 0ZM16.4435 29.2727C9.15297 29.2727 3.19734 23.2091 3.19734 15.7863C3.19734 8.36363 9.15297 2.3 16.4435 2.3C23.734 2.3 29.6896 8.36363 29.6896 15.7863C29.6896 23.2091 23.734 29.2727 16.4435 29.2727Z" fill="black"/>
</svg>
